<svg xmlns="http://www.w3.org/2000/svg" viewBox="0 0 512 512">
  <defs>
    <linearGradient id="neonGradient" x1="0%" y1="0%" x2="100%" y2="100%">
      <stop offset="0%" style="stop-color:#ff0033"/>
      <stop offset="100%" style="stop-color:#ff006e"/>
    </linearGradient>
    <filter id="glow">
      <feGaussianBlur stdDeviation="3" result="coloredBlur"/>
      <feMerge>
        <feMergeNode in="coloredBlur"/>
        <feMergeNode in="SourceGraphic"/>
      </feMerge>
    </filter>
  </defs>
  
  <!-- Background -->
  <rect width="512" height="512" fill="#000000"/>
  
  <!-- Outer hexagon frame -->
  <polygon 
    points="256,40 452,148 452,364 256,472 60,364 60,148" 
    fill="none" 
    stroke="url(#neonGradient)" 
    stroke-width="8"
    filter="url(#glow)"
  />
  
  <!-- Inner S letter stylized -->
  <path 
    d="M320,160 
       L192,160 
       C160,160 140,185 140,215 
       C140,245 160,270 192,270 
       L320,270 
       C352,270 372,295 372,325 
       C372,355 352,380 320,380 
       L192,380"
    fill="none" 
    stroke="url(#neonGradient)" 
    stroke-width="24" 
    stroke-linecap="round"
    filter="url(#glow)"
  />
  
  <!-- AI Circuit dots -->
  <circle cx="140" cy="215" r="12" fill="#ff0033" filter="url(#glow)"/>
  <circle cx="372" cy="325" r="12" fill="#ff0033" filter="url(#glow)"/>
  <circle cx="192" cy="160" r="8" fill="#00ffff" filter="url(#glow)"/>
  <circle cx="320" cy="380" r="8" fill="#00ffff" filter="url(#glow)"/>
</svg>
