<svg xmlns="http://www.w3.org/2000/svg" viewBox="0 0 1200 630">
  <defs>
    <linearGradient id="bgGradient" x1="0%" y1="0%" x2="100%" y2="100%">
      <stop offset="0%" style="stop-color:#0a0a0a"/>
      <stop offset="50%" style="stop-color:#000000"/>
      <stop offset="100%" style="stop-color:#0a0a0a"/>
    </linearGradient>
    <linearGradient id="textGradient" x1="0%" y1="0%" x2="100%" y2="0%">
      <stop offset="0%" style="stop-color:#ff0033"/>
      <stop offset="50%" style="stop-color:#ff006e"/>
      <stop offset="100%" style="stop-color:#ff0033"/>
    </linearGradient>
    <filter id="glow">
      <feGaussianBlur stdDeviation="4" result="coloredBlur"/>
      <feMerge>
        <feMergeNode in="coloredBlur"/>
        <feMergeNode in="SourceGraphic"/>
      </feMerge>
    </filter>
  </defs>
  
  <!-- Background -->
  <rect width="1200" height="630" fill="url(#bgGradient)"/>
  
  <!-- Grid pattern -->
  <g opacity="0.1" stroke="#ff0033" stroke-width="1">
    <line x1="0" y1="0" x2="1200" y2="0"/>
    <line x1="0" y1="100" x2="1200" y2="100"/>
    <line x1="0" y1="200" x2="1200" y2="200"/>
    <line x1="0" y1="300" x2="1200" y2="300"/>
    <line x1="0" y1="400" x2="1200" y2="400"/>
    <line x1="0" y1="500" x2="1200" y2="500"/>
    <line x1="0" y1="630" x2="1200" y2="630"/>
    <line x1="0" y1="0" x2="0" y2="630"/>
    <line x1="200" y1="0" x2="200" y2="630"/>
    <line x1="400" y1="0" x2="400" y2="630"/>
    <line x1="600" y1="0" x2="600" y2="630"/>
    <line x1="800" y1="0" x2="800" y2="630"/>
    <line x1="1000" y1="0" x2="1000" y2="630"/>
    <line x1="1200" y1="0" x2="1200" y2="630"/>
  </g>
  
  <!-- Glow orb -->
  <circle cx="600" cy="315" r="200" fill="#ff0033" opacity="0.1" filter="url(#glow)"/>
  
  <!-- Brand name -->
  <text 
    x="600" y="250" 
    text-anchor="middle" 
    font-family="system-ui, -apple-system, sans-serif" 
    font-size="72" 
    font-weight="700" 
    fill="#ffffff"
    filter="url(#glow)"
  >
    SYNTHETICA
  </text>
  
  <!-- Coming Soon -->
  <text 
    x="600" y="340" 
    text-anchor="middle" 
    font-family="system-ui, -apple-system, sans-serif" 
    font-size="48" 
    font-weight="700" 
    fill="url(#textGradient)"
    filter="url(#glow)"
  >
    COMING SOON
  </text>
  
  <!-- Tagline -->
  <text 
    x="600" y="420" 
    text-anchor="middle" 
    font-family="system-ui, -apple-system, sans-serif" 
    font-size="24" 
    fill="#888888"
  >
    Intelligence Reimagined. Automation Perfected.
  </text>
  
  <!-- Corner accents -->
  <path d="M40,40 L40,100 M40,40 L100,40" stroke="#ff0033" stroke-width="4" fill="none"/>
  <path d="M1160,40 L1160,100 M1160,40 L1100,40" stroke="#00ffff" stroke-width="4" fill="none"/>
  <path d="M40,590 L40,530 M40,590 L100,590" stroke="#00ffff" stroke-width="4" fill="none"/>
  <path d="M1160,590 L1160,530 M1160,590 L1100,590" stroke="#ff0033" stroke-width="4" fill="none"/>
</svg>
